<?xml version="1.0" encoding="utf-8"?>
<!-- Generator: Adobe Illustrator 21.0.2, SVG Export Plug-In . SVG Version: 6.00 Build 0)  -->
<svg version="1.1" id="Layer_1" xmlns="http://www.w3.org/2000/svg" xmlns:xlink="http://www.w3.org/1999/xlink" x="0px" y="0px"
	 viewBox="0 0 800 400" style="enable-background:new 0 0 800 400;" xml:space="preserve">
<style type="text/css">
	.st0{fill:#00ACC1;}
	.st1{fill:#004D40;}
	.st2{fill:#80CBC4;}
	.st3{fill:#009688;}
	.st4{fill:#00BFA5;}
</style>
<g>
	<path class="st0" d="M182,42.8c10.3,4.2,19.8,9.9,28.6,17c8.7,7.1,16,15.1,21.8,23.9c5.8,8.8,9.7,18.6,11.6,29.2
		c2,10.6,1.3,21.2-2,31.9c-4.1,11.6-11.9,22.8-23.2,33.6c-11.4,10.8-23,18.7-35,23.8c-3.4,1.5-8.5,3.1-15.1,4.9
		c-6.7,1.7-13.4,3.4-20,5.1c-6.7,1.7-12.5,3.4-17.4,5c-4.9,1.6-7.4,2.9-7.3,3.7c-0.9,21.5-0.6,43.3,1,65.5c1.6,22.2,3,44.4,4.4,66.7
		c-5.7,0.3-12.1,0.5-19.3,0.5c-7.2,0-14.6-0.1-22-0.3c-7.5-0.2-14.7-0.4-21.7-0.7c-7-0.2-13.4-0.4-19.1-0.5
		c-4-50.9-6.9-101.2-8.8-150.7C36.5,151.9,34.1,102,31,51.9c-0.1-1.3,0.5-2.4,1.8-3.4c8.7-7.5,19.6-12.8,32.5-15.7
		c12.9-3,26.5-4.4,40.7-4.4c14.2,0,28.1,1.5,41.6,4.4C161.2,35.6,172.6,39,182,42.8z"/>
	<path class="st1" d="M264.1,206.9c11.1,0.3,19.8,2.9,26,7.9c6.2,4.9,10.7,10.9,13.5,17.9c2.8,7,4.4,14.7,4.9,22.8
		c0.5,8.2,0.7,15.5,0.7,22.1c0,2.6-0.1,5.2-0.2,7.9c-0.2,2.6-0.4,5.1-0.7,7.4c-0.3,2.6-0.7,5.1-1,7.4l-50.6,2.9
		c0-1.6,0.1-4.3,0.2-7.9c0.2-3.6,0-7.2-0.5-10.8c-0.5-3.6-1.2-6.8-2.2-9.6c-1-2.8-2.6-4.2-4.9-4.2c-3.9,0-6.6,2.5-8.1,7.6
		c-1.5,5.1-2.2,10.9-2.2,17.4c0,5.6,0.3,11.5,1,17.9c0.7,6.4,1.5,12.4,2.5,17.9c1.3,6.2,2.6,12.4,3.9,18.7c-4.3,1-8.9,1.5-14,1.5
		c-5.1,0-9.9-0.2-14.5-0.5c-2.9-0.3-6.1-0.5-9.6-0.5c-3.4,0-7.9,0.3-13.5,1l-1.5-55.5c0-1-0.1-2-0.2-2.9c-0.2-1-0.2-2.1-0.2-3.4
		v-6.4c0-1.6-0.1-3.4-0.2-5.4c-0.2-2-0.2-3.9-0.2-5.9c-0.3-5.6-0.6-11.5-0.7-17.9c-0.2-6.4-0.2-12.4-0.2-17.9
		c0-11.5,0.5-21.9,1.5-31.4l37.3-0.5c0.7,0,1.4,0.1,2.2,0.2c0.8,0.2,1.7,0.2,2.7,0.2c1,0.3,2.8,0.5,5.4,0.5l1,10.8
		c0.7-0.3,1.1-0.8,1.5-1.5c0.3-0.7,0.8-1.3,1.5-2c2.3-1.6,4.9-3.1,7.9-4.4C255.2,207.1,259.2,206.6,264.1,206.9z"/>
	<path class="st2" d="M415.8,349.8c-4.6,1-9.8,1.5-15.7,1.5c-11.1,0-22.4-2.1-33.9-6.4c-15.4-5.9-27.3-14.2-35.8-25
		c-4.3-5.6-7.4-11.7-9.6-18.4c-2.1-6.7-3.2-13-3.2-18.9c0-9.5,1.8-18.8,5.4-28c3.6-9.2,8.4-17.4,14.5-24.8
		c6.1-7.4,13.3-13.3,21.8-17.9c8.5-4.6,17.7-6.9,27.5-6.9c3.9,0,8.3,0.6,13,1.7c4.7,1.2,9.2,2.5,13.5,4.2
		c16.7,8.8,29.7,19.2,39,31.2c9.3,12,13.7,27.1,13,45.4c-0.3,6.2-2,12.8-4.9,19.6c-2.9,6.9-6.8,13.3-11.5,19.1
		c-4.8,5.9-10,11-15.7,15.2C427.5,345.7,421.7,348.5,415.8,349.8z"/>
	<path class="st3" d="M516.4,212.3c4.6-2.6,10.4-4.4,17.4-5.4c7-1,12.5-1.5,16.4-1.5c6.9,0,12.9,0.7,18.2,2v-94.3l21.1-1.5l32.9-2
		c-0.3,10.5-0.3,21.6,0,33.4c0.3,11.8,0.7,23.4,1,34.9c0.3,9.5,0.6,19.6,0.7,30.4c0.2,10.8,0.2,20.6,0.2,29.5v24.5
		c0,13.7,0.1,28.6,0.2,44.4c0.2,15.9,0.4,30.5,0.7,43.9h-44.7l-12.8-0.5c-0.3-1-0.5-2-0.5-2.9v-4.9l-1,0.5h0.5
		c-2.3,1.3-4.2,2.4-5.6,3.2c-1.5,0.8-3.2,1.6-5.2,2.2c-2,0.7-4.4,1.2-7.4,1.7c-2.9,0.5-6.9,1.1-11.8,1.7c-2.9,0.3-5.6,0.3-8.1,0
		c-2.5-0.3-4.8-0.8-7.1-1.5c-5.9-1.3-11.8-4.1-17.7-8.3c-5.9-4.3-11.2-9.3-16-15.2c-4.7-5.9-8.6-12.3-11.5-19.1
		c-2.9-6.9-4.4-13.4-4.4-19.6c-0.7-18.7,2.1-33.6,8.3-44.9C486.8,231.7,498.7,221.5,516.4,212.3z"/>
	<path class="st4" d="M728.5,349.8c-4.6,1-9.8,1.5-15.7,1.5c-11.1,0-22.4-2.1-33.9-6.4c-15.4-5.9-27.3-14.2-35.8-25
		c-4.3-5.6-7.4-11.7-9.6-18.4c-2.1-6.7-3.2-13-3.2-18.9c0-9.5,1.8-18.8,5.4-28c3.6-9.2,8.4-17.4,14.5-24.8
		c6.1-7.4,13.3-13.3,21.8-17.9c8.5-4.6,17.7-6.9,27.5-6.9c3.9,0,8.3,0.6,13,1.7c4.7,1.2,9.2,2.5,13.5,4.2
		c16.7,8.8,29.7,19.2,39,31.2c9.3,12,13.7,27.1,13,45.4c-0.3,6.2-2,12.8-4.9,19.6c-2.9,6.9-6.8,13.3-11.5,19.1
		c-4.7,5.9-10,11-15.7,15.2C740.2,345.7,734.4,348.5,728.5,349.8z"/>
</g>
</svg>
